#!OML:ASF G:\JayActor3\Patient Classification 1\Patient 1\Session 2\male.ASF
:FULLY-SPECIFIED
:DEGREES
1983
root 28.6998 16.274 -6.78031 1522.78 -84.6056 635.454
lowerback 3.86141 1.64716 1.20329
upperback -0.306368 2.09953 -4.13089
thorax -2.28265 0.987215 -5.06853
lowerneck -3.71464 -8.79283 -11.6997
upperneck -4.44489 -11.6152 21.1477
head 1.37929 -5.87528 7.95216
rclavicle -5.37588e-014 2.8625e-014
rhumerus -25.9523 20.3243 -97.6336
rradius 51.9661
rwrist -7.28813
rhand -19.0432 1.9207
rfingers 7.12502
rthumb 7.26347 -27.9346
lclavicle -5.37588e-014 2.8625e-014
lhumerus -57.2313 26.8647 42.1863
lradius 9.5348
lwrist -11.5479
lhand -18.8683 19.9328
lfingers 7.12502
lthumb 7.43232 49.7822
rfemur 8.69466 -6.50051 26.9823
rtibia 51.2843
rfoot 5.70697 -11.3492
rtoes 18.7258
lfemur -27.387 6.2325 -18.0973
ltibia 39.6279
lfoot -9.87941 -5.13965
ltoes -0.734511
1984
root 28.5038 16.2706 -6.75756 1526.7 -84.9296 631.231
lowerback 4.17271 1.52054 0.866476
upperback -0.259497 1.90856 -4.12768
thorax -2.4386 0.89239 -4.87355
lowerneck -3.42679 -8.903 -11.802
upperneck -4.61591 -11.7774 21.3657
head 1.33224 -5.98038 8.04242
rclavicle 3.41568e-014 -3.65764e-014
rhumerus -26.8018 20.7867 -98.2008
rradius 51.2084
rwrist -7.3216
rhand -18.7934 1.74396
rfingers 7.12502
rthumb 7.50456 -28.1029
lclavicle 3.41568e-014 -3.65764e-014
lhumerus -57.0036 28.0468 42.5256
lradius 10.1197
lwrist -12.0159
lhand -19.6915 19.7577
lfingers 7.12502
lthumb 6.6376 49.6336
rfemur 7.36832 -6.45533 26.2093
rtibia 54.2832
rfoot 5.91212 -12.0171
rtoes 17.8148
lfemur -26.2847 6.50975 -18.3894
ltibia 39.7771
lfoot -10.2139 -5.17101
ltoes 0.935504
1985
root 28.3119 16.2723 -6.73402 1530.89 -85.4145 626.741
lowerback 4.50144 1.39153 0.356639
upperback -0.219204 1.69877 -4.16712
thorax -2.6144 0.789298 -4.62297
lowerneck -3.18264 -9.00762 -11.8795
upperneck -4.74028 -11.9342 21.5426
head 1.30065 -6.07876 8.11305
rclavicle 2.37206e-014 -6.36111e-014
rhumerus -27.6355 21.0994 -98.7696
rradius 50.2415
rwrist -7.25662
rhand -18.8336 1.66866
rfingers 7.12502
rthumb 7.46579 -28.1796
lclavicle 2.37206e-014 -6.36111e-014
lhumerus -55.4886 27.8593 45.3302
lradius 10.6118
lwrist -10.2342
lhand -20.9354 20.0154
lfingers 7.12502
lthumb 5.43671 49.9257
rfemur 5.96349 -6.37659 25.2636
rtibia 57.1952
rfoot 5.56843 -12.2651
rtoes 17.075
lfemur -25.0678 6.7583 -18.8898
ltibia 39.6788
lfoot -10.4775 -5.21295
ltoes 2.37221
1986
root 28.1255 16.2795 -6.71056 1535.9 -86.0349 621.471
lowerback 4.83227 1.26503 -0.29814
upperback -0.194905 1.47603 -4.24785
thorax -2.80832 0.680984 -4.33122
lowerneck -2.98433 -9.10716 -11.9316
upperneck -4.81687 -12.0857 21.6713
head 1.28437 -6.16991 8.16129
rclavicle -2.08972e-014 1.43125e-014
rhumerus -28.4502 21.2038 -99.3164
rradius 49.0421
rwrist -7.08215
rhand -19.1508 1.72335
rfingers 7.12502
rthumb 7.15957 -28.1355
lclavicle -2.08972e-014 1.43125e-014
lhumerus -53.9947 27.8913 47.7377
lradius 11.0262
lwrist -9.13958
lhand -22.1522 20.2521
lfingers 7.12502
lthumb 4.26177 50.1892
rfemur 4.45134 -6.26839 24.1846
rtibia 59.9939
rfoot 4.76914 -12.0973
rtoes 16.5772
lfemur -23.7815 6.99973 -19.573
ltibia 39.3505
lfoot -10.7027 -5.27602
ltoes 3.47242
1987
root 27.945 16.2924 -6.68773 1542.33 -86.6989 614.817
lowerback 5.14335 1.1386 -1.00586
upperback -0.187303 1.24325 -4.34781
thorax -3.00572 0.568858 -4.02706
lowerneck -2.83721 -9.20378 -11.9618
upperneck -4.85175 -12.2329 21.7484
head 1.28255 -6.25402 8.18624
rclavicle -6.06293e-015 2.22639e-014
rhumerus -29.2269 21.062 -99.8071
rradius 47.5976
rwrist -6.7892
rhand -19.6894 1.8486
rfingers 7.12502
rthumb 6.63965 -28.0273
lclavicle -6.06293e-015 2.22639e-014
lhumerus -52.4424 28.0479 49.9078
lradius 11.3781
lwrist -8.52457
lhand -23.2882 20.445
lfingers 7.12502
lthumb 3.16479 50.4012
rfemur 2.81904 -6.13758 23.0805
rtibia 62.6327
rfoot 3.68613 -11.6008
rtoes 16.2108
lfemur -22.4723 7.24074 -20.3423
ltibia 38.8338
lfoot -10.9204 -5.36091
ltoes 4.18203
1988
root 27.7702 16.3115 -6.66523 1550.84 -87.2552 606.162
lowerback 5.40467 1.00833 -1.61799
upperback -0.201681 1.00908 -4.43008
thorax -3.192 0.456464 -3.75598
lowerneck -2.74957 -9.29432 -11.9801
upperneck -4.84121 -12.3715 21.785
head 1.29827 -6.32824 8.19282
rclavicle 3.47873e-016 -2.54444e-014
rhumerus -29.9372 20.6508 -100.207
rradius 45.8917
rwrist -6.38012
rhand -20.3663 2.05391
rfingers 7.12502
rthumb 5.98617 -27.8415
lclavicle 3.47873e-016 -2.54444e-014
lhumerus -50.7854 28.2364 51.9702
lradius 11.6937
lwrist -8.1963
lhand -24.3038 20.6004
lfingers 7.12502
lthumb 2.18396 50.5689
rfemur 1.05396 -5.96544 22.1196
rtibia 65.0559
rfoot 2.54376 -10.9168
rtoes 15.8566
lfemur -21.1943 7.48551 -21.0441
ltibia 38.1858
lfoot -11.1383 -5.48673
ltoes 4.61976
1989
root 27.5995 16.3373 -6.64215 1560.6 -87.5848 596.33
lowerback 5.58948 0.867224 -2.01244
upperback -0.239771 0.779165 -4.45904
thorax -3.35307 0.345699 -3.54976
lowerneck -2.7099 -9.37438 -11.9886
upperneck -4.80468 -12.493 21.7761
head 1.32227 -6.38947 8.1816
rclavicle 6.80837e-015 -1.27222e-014
rhumerus -30.5637 19.961 -100.479
rradius 43.9209
rwrist -5.83966
rhand -21.0897 2.2928
rfingers 7.12502
rthumb 5.28773 -27.6212
lclavicle 6.80837e-015 -1.27222e-014
lhumerus -48.9863 28.3261 54.0836
lradius 12.0176
lwrist -7.91804
lhand -25.1807 20.7308
lfingers 7.12502
lthumb 1.337 50.7063
rfemur -0.827293 -5.74039 21.4336
rtibia 67.2059
rfoot 1.39498 -10.2145
rtoes 14.8518
lfemur -19.9775 7.72261 -21.5559
ltibia 37.4555
lfoot -11.3499 -5.6502
ltoes 4.92729
1990
root 27.4307 16.3701 -6.61764 1568.95 -87.6456 587.995
lowerback 5.68074 0.710858 -2.12134
upperback -0.299266 0.558249 -4.41218
thorax -3.47796 0.237986 -3.42351
lowerneck -2.71663 -9.43758 -11.999
upperneck -4.74144 -12.5886 21.7318
head 1.35451 -6.43342 8.15853
rclavicle -9.14409e-015 2.22639e-014
rhumerus -31.0823 18.9842 -100.582
rradius 41.6925
rwrist -5.18706
rhand -21.7481 2.51309
rfingers 7.12502
rthumb 4.65203 -27.4158
lclavicle -9.14409e-015 2.22639e-014
lhumerus -47.0607 28.2473 56.2992
lradius 12.3834
lwrist -7.56675
lhand -25.8934 20.8174
lfingers 7.12502
lthumb 0.648708 50.7962
rfemur -2.78766 -5.44809 21.0937
rtibia 69.0426
rfoot 0.291161 -9.54749
rtoes 13.715
lfemur -18.8241 7.94215 -21.8099
ltibia 36.6724
lfoot -11.5432 -5.81159
ltoes 5.13532
1991
root 27.2616 16.4101 -6.59161 1573.91 -87.5008 583.111
lowerback 5.67529 0.538508 -1.97614
upperback -0.371535 0.345096 -4.28874
thorax -3.5585 0.132473 -3.35915
lowerneck -2.76234 -9.48483 -11.9884
upperneck -4.66743 -12.6572 21.6263
head 1.3853 -6.46054 8.11264
rclavicle 3.15571e-015 -2.8625e-014
rhumerus -31.4778 17.7106 -100.482
rradius 39.2065
rwrist -4.35233
rhand -22.3062 2.71071
rfingers 7.12502
rthumb 4.11305 -27.2293
lclavicle 3.15571e-015 -2.8625e-014
lhumerus -45.029 27.9212 58.6589
lradius 12.8269
lwrist -7.0028
lhand -26.4793 20.892
lfingers 7.12502
lthumb 0.0827838 50.8717
rfemur -4.77465 -5.08675 21.0685
rtibia 70.5466
rfoot -0.76545 -8.93093
rtoes 12.5583
lfemur -17.702 8.13028 -21.8305
ltibia 35.8341
lfoot -11.7093 -5.96042
ltoes 5.34462
1992
root 27.0913 16.4566 -6.56465 1576.26 -87.252 580.879
lowerback 5.58968 0.352722 -1.68392
upperback -0.454666 0.132542 -4.1051
thorax -3.60465 0.0262596 -3.31395
lowerneck -2.83652 -9.51274 -11.9568
upperneck -4.58672 -12.6943 21.4599
head 1.41095 -6.46935 8.04527
rclavicle -1.09332e-015 2.8625e-014
rhumerus -31.7484 16.1001 -100.13
rradius 36.4867
rwrist -3.29511
rhand -22.7631 2.92779
rfingers 7.12502
rthumb 3.67188 -27.0203
lclavicle -1.09332e-015 2.8625e-014
lhumerus -42.945 27.301 61.1468
lradius 13.3812
lwrist -6.15342
lhand -26.944 20.9482
lfingers 7.12502
lthumb -0.366009 50.9277
rfemur -6.75267 -4.66537 21.2495
rtibia 71.7261
rfoot -1.8045 -8.37197
rtoes 11.3753
lfemur -16.58 8.27348 -21.7152
ltibia 34.9184
lfoot -11.8309 -6.0797
ltoes 5.5375
